<svg width="34" height="35" viewBox="0 0 34 35" fill="none" xmlns="http://www.w3.org/2000/svg">
<rect y="0.537109" width="34" height="34" rx="10" fill="#E9F544"/>
<path d="M19.8174 11.3858C19.9405 11.2629 20.1073 11.1938 20.2812 11.1938C20.4551 11.1938 20.6219 11.2629 20.7449 11.3858L26.4324 17.0733C26.5553 17.1963 26.6243 17.3631 26.6243 17.537C26.6243 17.7109 26.5553 17.8777 26.4324 18.0008L20.7449 23.6883C20.6647 23.7747 20.5627 23.8378 20.4496 23.8711C20.3365 23.9043 20.2165 23.9065 20.1023 23.8773C19.9881 23.8481 19.8839 23.7886 19.8006 23.7051C19.7174 23.6217 19.6582 23.5173 19.6293 23.403C19.6 23.2889 19.6021 23.1691 19.6352 23.0561C19.6683 22.9431 19.7312 22.841 19.8174 22.7608L25.0412 17.537L19.8174 12.3133C19.6945 12.1902 19.6255 12.0234 19.6255 11.8495C19.6255 11.6756 19.6945 11.5088 19.8174 11.3858ZM14.1824 11.3858C14.3053 11.5088 14.3743 11.6756 14.3743 11.8495C14.3743 12.0234 14.3053 12.1902 14.1824 12.3133L8.95866 17.537L14.1824 22.7608C14.2688 22.841 14.3319 22.943 14.3652 23.0561C14.3985 23.1692 14.4006 23.2892 14.3714 23.4034C14.3422 23.5176 14.2827 23.6218 14.1993 23.705C14.1158 23.7883 14.0114 23.8475 13.8972 23.8764C13.7831 23.9056 13.6632 23.9036 13.5502 23.8705C13.4372 23.8374 13.3352 23.7744 13.2549 23.6883L7.56741 18.0008C7.44452 17.8777 7.37549 17.7109 7.37549 17.537C7.37549 17.3631 7.44452 17.1963 7.56741 17.0733L13.2549 11.3858C13.378 11.2629 13.5448 11.1938 13.7187 11.1938C13.8926 11.1938 14.0594 11.2629 14.1824 11.3858Z" fill="#39465E"/>
</svg>
